<svg xmlns="http://www.w3.org/2000/svg" xmlns:xlink="http://www.w3.org/1999/xlink" style="vertical-align:-1.88ex" width="21.822ex" height="5.134ex" viewBox="0 -1401.3 9395.4 2210.6"><defs><path id="g" stroke-width="1" d="M495 384q0 22 19 40t41 19q19 0 34-18t15-61q0-30-12-86t-37-123-72-117-106-49q-80 0-110 77-1 2-7-5-59-72-135-72Q15-11 15 139q0 91 41 186t67 109q12 7 24 2 13-7 13-18 0-12-20-39t-46-73-32-98q-1-6-1-21 0-63 24-87t58-24q58 0 102 53l8 8v19q5 141 64 141 31 0 31-36 0-18-10-48t-20-55l-10-23q1-2 2-6t8-14 16-18 24-14 35-7q63 0 108 72t45 126q0 31-13 51t-25 32-13 27z"/><path id="a" stroke-width="1" d="M58 8q0 15 6 27 0 1 265 299t267 301l-10 2H476q-34 0-56-2t-55-11-54-26-45-50-38-79l-2-6q-1-3-2-5t-1-5-1-3l-1-2q-3-5-19-5-17 0-20 10l32 108q14 45 27 90 8 28 12 30 3 2 234 2h231q5-5 5-8 0-2-6-26Q189 54 188 52l-3-3h89q95 1 103 2 75 9 123 49t79 147q8 25 11 30t13 5h4q21 0 21-11Q547 5 541 2q-3-2-241-2H124Q58 0 58 8z"/><path id="c" stroke-width="1" d="M230 637q-27 0-32 1t-5 11q0 27 11 33 2 1 174 1 172-1 186-3 56-8 94-28t54-46 21-43 6-34q0-45-29-84t-67-60-67-34-38-13l7-5q67-38 67-110 0-11-5-61t-5-82v-9q0-18 1-28t11-18 26-9q28 0 46 22t26 47q5 14 8 17t15 3q20 0 20-12 0-18-24-57-38-57-90-57h-9q-61 0-101 25t-44 78q0 27 15 84t15 73q0 51-43 74-15 7-25 8t-71 2h-69l-32-130Q244 61 244 59q0-4 1-5t7-4 17-2 33-2h31q6-8 6-9t-3-18q-4-13-10-19h-15q-36 2-131 2H71Q54 2 50 1q-17 0-17 9 0 2 3 14 5 19 10 21 4 1 15 1h6q27 0 60 3 14 3 19 12 3 4 72 278t69 289q0 7-57 9zm400-83q0 32-21 54t-86 28h-23q-21 0-38 1h-22q-47 0-54-10-1-3-34-133t-33-133q0-1 69-1 78 1 104 7 64 10 100 59 16 23 27 60t11 68z"/><path id="d" stroke-width="1" d="M56 237v13l14 20h299v150l1 150q10 13 19 13 13 0 20-15V270h298q15-8 15-20t-15-20H409V-68q-8-14-18-14h-4q-12 0-18 14v298H70q-14 7-14 20z"/><path id="e" stroke-width="1" d="M98 609q0 28 18 44t44 16q23-2 40-17t17-43q0-30-17-45t-42-15q-25 0-42 15t-18 45zM28-163q30-5 36-5 60 0 71 91 2 12 2 218t-1 212q-4 18-16 24t-48 8H52v23q0 23 2 23l4 1h12q8 0 17 1t21 1 25 2q18 1 38 2t31 3 12 1h4V184q-1-220-1-243t-6-39q-16-47-58-77t-95-30q-49 0-81 26t-32 62q0 23 15 38t38 15 38-15 16-39q0-25-24-45z"/><path id="f" stroke-width="1" d="M94 250q0 69 10 131t23 107 37 88 38 67 42 52 33 34 25 21h17q14 0 14-9 0-3-17-21t-41-53-49-86-42-138-17-193 17-192 41-139 49-86 42-53 17-21q0-9-15-9h-16l-28 24q-94 85-137 212T94 250z"/><path id="b" stroke-width="1" d="M56 347q0 13 14 20h637q15-8 15-20 0-11-14-19l-318-1H72q-16 5-16 20zm0-194q0 15 16 20h636q14-10 14-20 0-13-15-20H70q-14 7-14 20z"/><path id="h" stroke-width="1" d="M228 637q-34 0-36 4-1 2-1 8 0 24 11 33 2 1 15 1 54-3 127-3 141 0 162 3h12q6-6 6-9t-2-18q-5-15-9-19h-38q-69-1-81-9-7-4-14-28t-67-264q-16-65-34-138T252 88l-9-36q0-4 9-4t59-2h17q32 0 51 1t49 7 50 18 44 34 42 55q16 30 30 67t17 42q5 3 17 3h13q6-9 6-11t-20-59-44-120-26-74q-2-5-4-6t-16-3-43-1h-76q-65 0-124 1H116Q32 0 32 10q0 7 2 14 5 19 10 21 4 1 15 1h6q27 0 60 3 14 3 19 12 3 4 72 278t69 289q0 7-57 9z"/><path id="i" stroke-width="1" d="M84 237v13l14 20h581q15-8 15-20t-15-20H98q-14 7-14 20z"/><path id="j" stroke-width="1" d="M213 578l-13-5q-14-5-40-10t-58-7H83v46h19q47 2 87 15t56 24 28 22q2 3 12 3 9 0 17-6V361l1-300q7-7 12-9t24-4 62-2h26V0h-11q-21 3-159 3-136 0-157-3H88v46h64q16 0 25 1t16 3 8 2 6 5 6 4v517z"/><path id="k" stroke-width="1" d="M50 252q0 115 67 221t169 168 204 63q90 0 143-51 9-10 15-17t8-10l1-3q3 0 27 26 7 6 15 14t16 16 10 11l15 15h6q14 0 14-7 0-4-32-137-36-139-36-140-2-5-5-6t-18-2h-16q-6 6-6 9 0 1 1 7t2 20 1 32q0 71-32 124t-109 54q-26 0-56-7t-72-24-83-56-73-93q-32-57-51-133t-19-124q0-114 76-164 48-34 118-34 91 0 162 68t94 148q4 13 6 15t16 2q20 0 20-9 0-5-1-9-29-107-124-184T319-22q-113 0-191 75T50 252z"/><path id="l" stroke-width="1" d="M60 749l4 1h22l28-24q94-85 137-212t43-264q0-68-10-131T261 12t-37-88-38-67-41-51-32-33-23-19l-4-4H63q-3 0-5 3t-3 9q1 1 11 13Q221-64 221 250T66 725q-10 12-11 13 0 8 5 11z"/></defs><g fill="currentColor" stroke="currentColor" stroke-width="0" transform="scale(1 -1)"><use xlink:href="#a"/><use x="1001" xlink:href="#b"/><use x="2057" xlink:href="#c"/><use x="3039" xlink:href="#d"/><use x="4040" xlink:href="#e"/><use x="4346" xlink:href="#f"/><use x="4736" xlink:href="#g"/><use x="5358" xlink:href="#h"/><use x="6262" xlink:href="#i"/><g transform="translate(7382)"><path stroke="none" d="M0 220h1503v60H0z"/><use x="501" y="676" xlink:href="#j"/><g transform="translate(60 -686)"><use xlink:href="#g"/><use x="622" xlink:href="#k"/></g></g><use x="9005" xlink:href="#l"/></g></svg>